<svg width="837" height="276" viewBox="0 0 837 276" fill="none" xmlns="http://www.w3.org/2000/svg">
<path d="M828.715 197.511V218.153C828.715 242.703 808.254 262.614 783 262.614H411.009C385.755 262.614 365.283 242.703 365.283 218.153V197.511C365.283 188.168 373.079 180.586 382.685 180.586H383.591H484.992L519.775 214.415L554.558 180.586H810.407H811.323C820.93 180.586 828.715 188.168 828.715 197.511Z" fill="#F7B239"/>
<path d="M828.715 92.78C828.715 102.134 820.93 109.705 811.323 109.705H810.407H383.591H382.685C377.882 109.705 373.531 107.815 370.384 104.755C367.237 101.694 365.283 97.4624 365.283 92.78C365.283 55.3422 390.448 23.6178 425.231 12.7495L472.47 58.6929C480.884 66.8657 494.51 66.8657 502.924 58.6929C511.328 50.5094 511.328 37.2569 502.924 29.0735L481.999 8.72217H545.382L596.761 58.6929C605.176 66.8657 618.802 66.8657 627.216 58.6929C635.619 50.5094 635.619 37.2569 627.216 29.0735L606.291 8.72217H669.673L721.053 58.6929C729.456 66.8657 743.093 66.8657 751.508 58.6929C759.911 50.5094 759.911 37.2569 751.508 29.0735L730.582 8.72217H742.287C766.15 8.72217 787.759 18.1299 803.406 33.337C819.042 48.5549 828.715 69.5613 828.715 92.78Z" fill="#F7B239"/>
<path d="M484.627 262.614H411.009C385.755 262.614 365.283 242.703 365.283 218.153V197.511C365.283 188.168 373.079 180.586 382.685 180.586H456.304C446.697 180.586 438.901 188.168 438.901 197.511V218.153C438.901 242.703 459.374 262.614 484.627 262.614Z" fill="#E09B2D"/>
<path d="M444.003 104.755C447.15 107.815 451.501 109.705 456.304 109.705H382.685C377.882 109.705 373.531 107.815 370.384 104.755C367.237 101.694 365.283 97.4625 365.283 92.7801C365.283 55.3423 390.448 23.6179 425.231 12.7495L455.962 42.6375C445.24 56.6417 438.901 73.986 438.901 92.7801C438.901 97.4625 440.856 101.694 444.003 104.755Z" fill="#E09B2D"/>
<path d="M534.472 60.9912C526.069 66.7798 514.353 66.0065 506.833 58.6929L455.465 8.73291C478.93 8.99066 500.142 18.3447 515.568 33.337C523.629 41.1769 530.099 50.5632 534.472 60.9912Z" fill="#F7B239"/>
<path d="M455.465 8.73293C455.123 8.72216 454.791 8.72217 454.449 8.72217H455.454L455.465 8.73293Z" fill="#F7B239"/>
<path d="M810.407 145.146V180.586H554.558L590.986 145.146H810.407Z" fill="#9AD14B"/>
<path d="M810.407 109.705V145.146H590.986H448.552H383.591V109.705H810.407Z" fill="#F95428"/>
<path d="M437.914 109.705V145.146H409.987H391.858H383.591V109.705H437.914Z" fill="#E54728"/>
<path d="M751.508 29.0735C759.911 37.2569 759.911 50.5094 751.508 58.6929C743.093 66.8657 729.456 66.8657 721.053 58.6929L669.674 8.72217H730.583L751.508 29.0735Z" fill="#B27214"/>
<path d="M627.216 29.0735C635.619 37.2569 635.619 50.5094 627.216 58.6929C618.802 66.8657 605.176 66.8657 596.761 58.6929L545.382 8.72217H606.291L627.216 29.0735Z" fill="#B27214"/>
<path d="M590.986 145.146L554.558 180.586L519.775 214.415L484.992 180.586L448.552 145.146H590.986Z" fill="#F4DE3B"/>
<path d="M502.924 29.0735C511.328 37.2569 511.328 50.5094 502.924 58.6929C494.51 66.8657 480.884 66.8657 472.47 58.6929L425.231 12.7495C433.579 10.129 442.479 8.72217 451.722 8.72217H481.999L502.924 29.0735Z" fill="#B27214"/>
<path d="M484.992 180.586H383.591V145.146H448.552L484.992 180.586Z" fill="#9AD14B"/>
<path d="M437.914 143.356V178.797H409.987H391.858H383.591V143.356H437.914Z" fill="#90BC42"/>
<path d="M801.754 87.4242C797.981 87.4242 794.571 84.9004 793.69 81.1716C791.492 71.8691 786.618 63.3387 779.595 56.5031C778.887 55.8157 778.153 55.1402 777.417 54.5012C774.007 51.5371 773.714 46.4456 776.761 43.1281C779.81 39.8118 785.044 39.5261 788.455 42.4902C789.417 43.3268 790.376 44.2085 791.305 45.1106C800.533 54.0921 806.939 65.3127 809.833 77.5643C810.857 81.8998 808.074 86.2224 803.616 87.218C802.993 87.3576 802.369 87.4242 801.754 87.4242ZM700.295 81.4906C698.176 81.4906 696.056 80.7045 694.439 79.1311L674.381 59.6229C671.147 56.4773 671.147 51.3771 674.381 48.2326C677.615 45.087 682.859 45.0859 686.092 48.2326L706.15 67.7409C709.385 70.8864 709.385 75.9866 706.15 79.1311C704.533 80.7045 702.414 81.4906 700.295 81.4906ZM572.265 77.8564C570.146 77.8564 568.026 77.0702 566.41 75.4969L545.978 55.6257C542.744 52.4801 542.744 47.3799 545.978 44.2354C549.212 41.0898 554.456 41.0898 557.69 44.2354L578.121 64.1066C581.355 67.2522 581.355 72.3524 578.121 75.4969C576.504 77.0692 574.384 77.8564 572.265 77.8564Z" fill="white"/>
<path d="M534.862 41.4775C539.436 41.4775 543.144 37.8713 543.144 33.4229C543.144 28.9745 539.436 25.3683 534.862 25.3683C530.288 25.3683 526.58 28.9745 526.58 33.4229C526.58 37.8713 530.288 41.4775 534.862 41.4775Z" fill="white"/>
<path d="M664.424 46.4897C668.998 46.4897 672.706 42.8835 672.706 38.4351C672.706 33.9867 668.998 30.3805 664.424 30.3805C659.85 30.3805 656.142 33.9867 656.142 38.4351C656.142 42.8835 659.85 46.4897 664.424 46.4897Z" fill="white"/>
<path d="M806.071 233.504C801.497 233.504 797.789 229.897 797.789 225.449V203.97C797.789 199.522 801.497 195.916 806.071 195.916C810.644 195.916 814.352 199.522 814.352 203.97V225.449C814.352 229.897 810.644 233.504 806.071 233.504Z" fill="white"/>
<path d="M818.688 173.581L818.692 116.708C829.269 113.617 837 104.064 837 92.7832C837 41.9887 794.511 0.664307 742.284 0.664307H451.722C399.495 0.664307 357.006 41.9887 357.006 92.7832C357.006 104.063 364.736 113.617 375.314 116.708L375.309 173.583C364.731 176.672 357 186.226 357 197.507V218.148C357 247.105 381.228 270.664 411.008 270.664H782.999C812.772 270.664 836.996 247.105 836.996 218.148V197.507C836.996 186.224 829.265 176.668 818.688 173.581ZM802.13 137.087H391.876V117.761H802.129L802.13 137.087ZM391.871 153.2H445.125L464.997 172.527H391.871V153.2ZM468.549 153.2H570.992L519.774 203.021L468.549 153.2ZM594.415 153.2H802.124V172.527H574.546L594.415 153.2ZM745.654 52.9902C740.481 58.0142 732.072 58.0163 726.908 52.9935L689.667 16.7724H727.152L745.646 34.7611C750.81 39.7893 750.81 47.9695 745.654 52.9902ZM621.355 34.7611C626.517 39.7893 626.517 47.9695 621.363 52.9902C616.193 58.012 607.782 58.0109 602.616 52.9935L565.375 16.7724H602.86L621.355 34.7611ZM478.569 16.7735L497.063 34.7621C502.225 39.7904 502.225 47.9706 497.071 52.9913C491.901 58.012 483.49 58.012 478.325 52.9945L441.742 17.4147C445.012 17.0076 448.338 16.7735 451.72 16.7735H478.569ZM423.109 22.0724L466.618 64.388C472.428 70.0327 480.06 72.855 487.694 72.855C495.33 72.855 502.967 70.0306 508.783 64.3805C520.392 53.0762 520.392 34.6827 508.78 23.374L501.994 16.7735H541.952L590.909 64.388C596.721 70.0327 604.352 72.855 611.985 72.855C619.621 72.855 627.259 70.0306 633.075 64.3805C644.684 53.0762 644.684 34.6827 633.072 23.374L626.285 16.7735H666.244L715.197 64.3848C721.007 70.0349 728.638 72.8593 736.274 72.8593C743.909 72.8593 751.548 70.0338 757.368 64.3816C768.975 53.0772 768.975 34.6837 757.364 23.3751L751.086 17.2686C790.051 21.5365 820.439 53.7656 820.439 92.7832C820.439 97.674 816.348 101.653 811.319 101.653H810.412H383.594H382.688C377.659 101.653 373.568 97.674 373.568 92.7832C373.568 60.6926 394.132 33.2028 423.109 22.0724ZM820.432 218.148C820.432 238.223 803.639 254.555 782.999 254.555H411.008C390.361 254.555 373.563 238.223 373.563 218.148V197.507C373.563 192.615 377.656 188.636 382.684 188.636H383.59H481.56L513.918 220.107C515.471 221.618 517.578 222.467 519.774 222.467C521.97 222.467 524.077 221.617 525.631 220.107L557.984 188.636H810.406H811.322C816.345 188.636 820.432 192.615 820.432 197.507V218.148Z" fill="#333333"/>
<path d="M112.302 23.396L80.988 95H59.874L56.712 47.978L36.618 95H15.504L9.996 23.396H28.662L29.784 75.518L51.714 23.396H70.992L74.052 75.212L93.534 23.396H112.302ZM128.291 32.168C125.571 32.168 123.395 31.454 121.763 30.026C120.199 28.53 119.417 26.66 119.417 24.416C119.417 21.356 120.607 18.738 122.987 16.562C125.367 14.386 128.257 13.298 131.657 13.298C134.377 13.298 136.519 14.046 138.083 15.542C139.647 16.97 140.429 18.84 140.429 21.152C140.429 24.144 139.239 26.728 136.859 28.904C134.479 31.08 131.623 32.168 128.291 32.168ZM135.839 38.084L125.843 95H108.401L118.397 38.084H135.839ZM140.115 66.542C141.135 60.626 143.243 55.458 146.439 51.038C149.635 46.618 153.579 43.218 158.271 40.838C163.031 38.458 168.199 37.268 173.775 37.268C180.915 37.268 186.559 39.138 190.707 42.878C194.855 46.618 197.065 51.888 197.337 58.688H178.773C178.025 54.336 175.373 52.16 170.817 52.16C167.621 52.16 164.867 53.418 162.555 55.934C160.243 58.382 158.679 61.918 157.863 66.542C157.591 67.97 157.455 69.466 157.455 71.03C157.455 74.226 158.203 76.674 159.699 78.374C161.195 80.074 163.235 80.924 165.819 80.924C170.307 80.924 173.673 78.748 175.917 74.396H194.583C191.931 81.06 187.851 86.296 182.343 90.104C176.835 93.912 170.545 95.816 163.473 95.816C156.129 95.816 150.281 93.81 145.929 89.798C141.645 85.718 139.503 80.176 139.503 73.172C139.503 71.064 139.707 68.854 140.115 66.542ZM245.325 37.472C250.901 37.472 255.287 39.07 258.483 42.266C261.747 45.462 263.379 49.916 263.379 55.628C263.379 57.532 263.175 59.572 262.767 61.748L256.851 95H239.511L245.019 64.094C245.223 62.938 245.325 61.918 245.325 61.034C245.325 58.178 244.509 55.968 242.877 54.404C241.313 52.84 239.103 52.058 236.247 52.058C232.847 52.058 229.991 53.112 227.679 55.22C225.367 57.328 223.871 60.286 223.191 64.094V63.89L217.683 95H200.241L213.603 19.52H231.045L226.455 45.632C228.699 43.116 231.453 41.144 234.717 39.716C237.981 38.22 241.517 37.472 245.325 37.472ZM112.302 176.396L80.988 248H59.874L56.712 200.978L36.618 248H15.504L9.996 176.396H28.662L29.784 228.518L51.714 176.396H70.992L74.052 228.212L93.534 176.396H112.302ZM110.033 219.44C111.053 213.592 113.059 208.458 116.051 204.038C119.043 199.618 122.647 196.218 126.863 193.838C131.079 191.458 135.533 190.268 140.225 190.268C144.237 190.268 147.603 191.084 150.323 192.716C153.043 194.348 155.015 196.49 156.239 199.142L157.667 191.084H175.109L165.011 248H147.569L149.099 239.942C146.923 242.594 144.169 244.736 140.837 246.368C137.505 248 133.833 248.816 129.821 248.816C125.809 248.816 122.239 247.898 119.111 246.062C116.051 244.226 113.671 241.642 111.971 238.31C110.271 234.91 109.421 230.932 109.421 226.376C109.421 224.2 109.625 221.888 110.033 219.44ZM152.669 219.542C152.873 218.318 152.975 217.196 152.975 216.176C152.975 212.844 151.989 210.226 150.017 208.322C148.113 206.418 145.665 205.466 142.673 205.466C139.205 205.466 136.043 206.724 133.187 209.24C130.331 211.688 128.529 215.088 127.781 219.44C127.577 220.664 127.475 221.786 127.475 222.806C127.475 226.138 128.427 228.79 130.331 230.762C132.303 232.666 134.751 233.618 137.675 233.618C141.143 233.618 144.305 232.36 147.161 229.844C150.017 227.328 151.853 223.894 152.669 219.542ZM200.682 191.084L207.618 226.682L226.998 191.084H245.868L195.378 275.03H176.61L194.766 246.062L181.302 191.084H200.682ZM260.947 233.618H285.733L283.081 248H238.915L241.465 234.128L270.127 205.466H246.667L249.217 191.084H292.567L290.119 204.956L260.947 233.618ZM327.053 172.418C333.377 172.418 338.375 173.914 342.047 176.906C345.787 179.898 347.657 184.148 347.657 189.656C347.657 191.288 347.521 192.818 347.249 194.246C346.093 200.638 343.101 205.636 338.273 209.24C333.445 212.776 327.597 214.578 320.729 214.646L318.893 222.296H303.593L306.347 203.324H312.467C317.771 203.324 321.919 202.678 324.911 201.386C327.971 200.026 329.773 197.612 330.317 194.144C330.385 193.804 330.419 193.294 330.419 192.614C330.419 190.778 329.875 189.35 328.787 188.33C327.699 187.242 326.169 186.698 324.197 186.698C321.749 186.698 319.709 187.412 318.077 188.84C316.513 190.2 315.527 192.07 315.119 194.45H298.697C299.377 190.302 300.941 186.562 303.389 183.23C305.837 179.898 309.067 177.28 313.079 175.376C317.159 173.404 321.817 172.418 327.053 172.418ZM306.755 248.816C304.035 248.816 301.859 248.102 300.227 246.674C298.663 245.178 297.881 243.308 297.881 241.064C297.881 237.936 299.037 235.284 301.349 233.108C303.729 230.932 306.653 229.844 310.121 229.844C312.773 229.844 314.881 230.592 316.445 232.088C318.009 233.516 318.791 235.386 318.791 237.698C318.791 240.758 317.601 243.376 315.221 245.552C312.909 247.728 310.087 248.816 306.755 248.816Z" fill="#333333"/>
<path d="M171.051 28.3103V29.9157C171.051 31.8252 168.706 33.3739 165.812 33.3739H123.188C120.295 33.3739 117.949 31.8252 117.949 29.9157V28.3103C117.949 27.5836 118.842 26.9939 119.943 26.9939H120.047H131.666L135.651 29.6251L139.637 26.9939H168.953H169.058C170.159 26.9939 171.051 27.5836 171.051 28.3103Z" fill="#F7B239"/>
<path d="M171.051 20.1645C171.051 20.8921 170.159 21.481 169.058 21.481H168.953H120.047H119.943C119.393 21.481 118.894 21.334 118.534 21.0959C118.173 20.8578 117.949 20.5287 117.949 20.1645C117.949 17.2527 120.832 14.7853 124.818 13.9399L130.231 17.5133C131.195 18.149 132.756 18.149 133.72 17.5133C134.683 16.8768 134.683 15.8461 133.72 15.2096L131.323 13.6267H138.585L144.473 17.5133C145.437 18.149 146.998 18.149 147.962 17.5133C148.925 16.8768 148.925 15.8461 147.962 15.2096L145.564 13.6267H152.827L158.714 17.5133C159.677 18.149 161.24 18.149 162.204 17.5133C163.167 16.8768 163.167 15.8461 162.204 15.2096L159.806 13.6267H161.147C163.882 13.6267 166.358 14.3584 168.151 15.5412C169.942 16.7248 171.051 18.3586 171.051 20.1645Z" fill="#F7B239"/>
<path d="M131.624 33.3739H123.188C120.295 33.3739 117.949 31.8252 117.949 29.9157V28.3103C117.949 27.5836 118.842 26.9939 119.943 26.9939H128.378C127.278 26.9939 126.384 27.5836 126.384 28.3103V29.9157C126.384 31.8252 128.73 33.3739 131.624 33.3739Z" fill="#E09B2D"/>
<path d="M126.969 21.0961C127.33 21.3342 127.828 21.4812 128.378 21.4812H119.943C119.393 21.4812 118.894 21.3342 118.534 21.0961C118.173 20.8581 117.949 20.529 117.949 20.1648C117.949 17.253 120.832 14.7855 124.818 13.9402L128.339 16.2648C127.111 17.354 126.384 18.703 126.384 20.1648C126.384 20.529 126.608 20.8581 126.969 21.0961Z" fill="#E09B2D"/>
<path d="M137.335 17.692C136.373 18.1422 135.03 18.0821 134.168 17.5132L128.282 13.6274C130.971 13.6475 133.402 14.375 135.169 15.5411C136.093 16.1509 136.834 16.8809 137.335 17.692Z" fill="#F7B239"/>
<path d="M128.282 13.6278C128.243 13.6267 128.205 13.6267 128.166 13.6267H128.281L128.282 13.6278Z" fill="#F7B239"/>
<path d="M168.953 24.2373V26.9938H139.637L143.811 24.2373H168.953Z" fill="#9AD14B"/>
<path d="M168.953 21.481V24.2374H143.811H127.49H120.047V21.481H168.953Z" fill="#F95428"/>
<path d="M126.271 21.481V24.2374H123.071H120.994H120.047V21.481H126.271Z" fill="#E54728"/>
<path d="M162.204 15.2096C163.167 15.8461 163.167 16.8768 162.204 17.5133C161.24 18.149 159.677 18.149 158.714 17.5133L152.827 13.6267H159.806L162.204 15.2096Z" fill="#B27214"/>
<path d="M147.962 15.2096C148.925 15.8461 148.925 16.8768 147.962 17.5133C146.998 18.149 145.437 18.149 144.472 17.5133L138.585 13.6267H145.564L147.962 15.2096Z" fill="#B27214"/>
<path d="M143.811 24.2373L139.637 26.9938L135.651 29.6249L131.666 26.9938L127.49 24.2373H143.811Z" fill="#F4DE3B"/>
<path d="M133.72 15.2096C134.683 15.8461 134.683 16.8768 133.72 17.5133C132.756 18.149 131.195 18.149 130.231 17.5133L124.818 13.9399C125.775 13.7361 126.794 13.6267 127.853 13.6267H131.323L133.72 15.2096Z" fill="#B27214"/>
<path d="M131.666 26.9938H120.047V24.2373H127.49L131.666 26.9938Z" fill="#9AD14B"/>
<path d="M126.271 24.0984V26.8549H123.071H120.994H120.047V24.0984H126.271Z" fill="#90BC42"/>
<path d="M167.962 19.748C167.529 19.748 167.139 19.5517 167.038 19.2617C166.786 18.5381 166.227 17.8747 165.422 17.343C165.341 17.2895 165.257 17.237 165.173 17.1873C164.782 16.9568 164.749 16.5607 165.098 16.3027C165.447 16.0448 166.047 16.0226 166.438 16.2531C166.548 16.3182 166.658 16.3868 166.764 16.4569C167.822 17.1555 168.556 18.0282 168.887 18.9811C169.005 19.3183 168.686 19.6545 168.175 19.7319C168.104 19.7428 168.032 19.748 167.962 19.748ZM156.336 19.2865C156.093 19.2865 155.85 19.2253 155.665 19.103L153.367 17.5857C152.996 17.341 152.996 16.9443 153.367 16.6997C153.737 16.4551 154.338 16.455 154.709 16.6997L157.007 18.217C157.378 18.4617 157.378 18.8584 157.007 19.103C156.822 19.2253 156.579 19.2865 156.336 19.2865ZM141.666 19.0038C141.423 19.0038 141.18 18.9427 140.995 18.8203L138.654 17.2748C138.283 17.0301 138.283 16.6334 138.654 16.3888C139.025 16.1442 139.625 16.1442 139.996 16.3888L142.337 17.9344C142.708 18.179 142.708 18.5757 142.337 18.8203C142.152 18.9426 141.909 19.0038 141.666 19.0038Z" fill="white"/>
<path d="M137.38 16.1743C137.904 16.1743 138.329 15.8938 138.329 15.5479C138.329 15.2019 137.904 14.9214 137.38 14.9214C136.856 14.9214 136.431 15.2019 136.431 15.5479C136.431 15.8938 136.856 16.1743 137.38 16.1743Z" fill="white"/>
<path d="M152.226 16.5645C152.75 16.5645 153.174 16.284 153.174 15.938C153.174 15.592 152.75 15.3115 152.226 15.3115C151.701 15.3115 151.277 15.592 151.277 15.938C151.277 16.284 151.701 16.5645 152.226 16.5645Z" fill="white"/>
<path d="M168.456 31.1098C167.932 31.1098 167.507 30.8293 167.507 30.4833V28.8127C167.507 28.4668 167.932 28.1863 168.456 28.1863C168.98 28.1863 169.405 28.4668 169.405 28.8127V30.4833C169.405 30.8293 168.98 31.1098 168.456 31.1098Z" fill="white"/>
<path d="M169.902 26.449L169.902 22.0256C171.114 21.7852 172 21.0422 172 20.1648C172 16.2141 167.131 13 161.147 13H127.854C121.869 13 117.001 16.2141 117.001 20.1648C117.001 21.0421 117.886 21.7852 119.098 22.0256L119.098 26.4492C117.886 26.6895 117 27.4326 117 28.31V29.9154C117 32.1676 119.776 34 123.188 34H165.812C169.224 34 171.999 32.1676 171.999 29.9154V28.31C171.999 27.4324 171.114 26.6892 169.902 26.449ZM168.004 23.6106H120.996V22.1075H168.004L168.004 23.6106ZM120.996 24.8639H127.098L129.375 26.3671H120.996V24.8639ZM129.782 24.8639H141.52L135.651 28.7388L129.782 24.8639ZM144.204 24.8639H168.004V26.3671H141.927L144.204 24.8639ZM161.533 17.0698C160.941 17.4605 159.977 17.4607 159.385 17.07L155.118 14.2529H159.413L161.532 15.652C162.124 16.0431 162.124 16.6793 161.533 17.0698ZM147.291 15.652C147.882 16.0431 147.882 16.6793 147.292 17.0698C146.699 17.4604 145.735 17.4603 145.144 17.07L140.876 14.2529H145.171L147.291 15.652ZM130.93 14.2529L133.049 15.6521C133.64 16.0431 133.64 16.6794 133.05 17.0699C132.457 17.4604 131.494 17.4604 130.902 17.0701L126.71 14.3028C127.085 14.2711 127.466 14.2529 127.853 14.2529H130.93ZM124.575 14.6651L129.56 17.9563C130.226 18.3953 131.101 18.6148 131.975 18.6148C132.85 18.6148 133.725 18.3952 134.392 17.9557C135.722 17.0765 135.722 15.6459 134.391 14.7663L133.614 14.2529H138.192L143.802 17.9563C144.468 18.3953 145.342 18.6148 146.217 18.6148C147.092 18.6148 147.967 18.3952 148.634 17.9557C149.964 17.0765 149.964 15.6459 148.633 14.7663L147.856 14.2529H152.434L158.043 17.956C158.709 18.3955 159.584 18.6152 160.458 18.6152C161.333 18.6152 162.209 18.3954 162.875 17.9558C164.206 17.0766 164.206 15.646 162.875 14.7664L162.156 14.2914C166.62 14.6234 170.102 17.1301 170.102 20.1648C170.102 20.5452 169.634 20.8547 169.057 20.8547H168.954H120.047H119.943C119.367 20.8547 118.898 20.5452 118.898 20.1648C118.898 17.6689 121.255 15.5308 124.575 14.6651ZM170.102 29.9154C170.102 31.4767 168.177 32.7471 165.812 32.7471H123.188C120.823 32.7471 118.898 31.4767 118.898 29.9154V28.31C118.898 27.9295 119.367 27.62 119.943 27.62H120.047H131.272L134.98 30.0678C135.158 30.1853 135.4 30.2513 135.651 30.2513C135.903 30.2513 136.144 30.1852 136.322 30.0678L140.029 27.62H168.953H169.058C169.633 27.62 170.102 27.9295 170.102 28.31V29.9154Z" fill="#333333"/>
</svg>
