<svg width="640" height="132" viewBox="0 0 640 132" fill="none" xmlns="http://www.w3.org/2000/svg">
<path d="M112.302 30.396L80.988 102H59.874L56.712 54.978L36.618 102H15.504L9.996 30.396H28.662L29.784 82.518L51.714 30.396H70.992L74.052 82.212L93.534 30.396H112.302ZM128.291 39.168C125.571 39.168 123.395 38.454 121.763 37.026C120.199 35.53 119.417 33.66 119.417 31.416C119.417 28.356 120.607 25.738 122.987 23.562C125.367 21.386 128.257 20.298 131.657 20.298C134.377 20.298 136.519 21.046 138.083 22.542C139.647 23.97 140.429 25.84 140.429 28.152C140.429 31.144 139.239 33.728 136.859 35.904C134.479 38.08 131.623 39.168 128.291 39.168ZM135.839 45.084L125.843 102H108.401L118.397 45.084H135.839ZM140.115 73.542C141.135 67.626 143.243 62.458 146.439 58.038C149.635 53.618 153.579 50.218 158.271 47.838C163.031 45.458 168.199 44.268 173.775 44.268C180.915 44.268 186.559 46.138 190.707 49.878C194.855 53.618 197.065 58.888 197.337 65.688H178.773C178.025 61.336 175.373 59.16 170.817 59.16C167.621 59.16 164.867 60.418 162.555 62.934C160.243 65.382 158.679 68.918 157.863 73.542C157.591 74.97 157.455 76.466 157.455 78.03C157.455 81.226 158.203 83.674 159.699 85.374C161.195 87.074 163.235 87.924 165.819 87.924C170.307 87.924 173.673 85.748 175.917 81.396H194.583C191.931 88.06 187.851 93.296 182.343 97.104C176.835 100.912 170.545 102.816 163.473 102.816C156.129 102.816 150.281 100.81 145.929 96.798C141.645 92.718 139.503 87.176 139.503 80.172C139.503 78.064 139.707 75.854 140.115 73.542ZM245.325 44.472C250.901 44.472 255.287 46.07 258.483 49.266C261.747 52.462 263.379 56.916 263.379 62.628C263.379 64.532 263.175 66.572 262.767 68.748L256.851 102H239.511L245.019 71.094C245.223 69.938 245.325 68.918 245.325 68.034C245.325 65.178 244.509 62.968 242.877 61.404C241.313 59.84 239.103 59.058 236.247 59.058C232.847 59.058 229.991 60.112 227.679 62.22C225.367 64.328 223.871 67.286 223.191 71.094V70.89L217.683 102H200.241L213.603 26.52H231.045L226.455 52.632C228.699 50.116 231.453 48.144 234.717 46.716C237.981 45.22 241.517 44.472 245.325 44.472ZM403.759 30.396L372.445 102H351.331L348.169 54.978L328.075 102H306.961L301.453 30.396H320.119L321.241 82.518L343.171 30.396H362.449L365.509 82.212L384.991 30.396H403.759ZM401.49 73.44C402.51 67.592 404.516 62.458 407.508 58.038C410.5 53.618 414.104 50.218 418.32 47.838C422.536 45.458 426.99 44.268 431.682 44.268C435.694 44.268 439.06 45.084 441.78 46.716C444.5 48.348 446.472 50.49 447.696 53.142L449.124 45.084H466.566L456.468 102H439.026L440.556 93.942C438.38 96.594 435.626 98.736 432.294 100.368C428.962 102 425.29 102.816 421.278 102.816C417.266 102.816 413.696 101.898 410.568 100.062C407.508 98.226 405.128 95.642 403.428 92.31C401.728 88.91 400.878 84.932 400.878 80.376C400.878 78.2 401.082 75.888 401.49 73.44ZM444.126 73.542C444.33 72.318 444.432 71.196 444.432 70.176C444.432 66.844 443.446 64.226 441.474 62.322C439.57 60.418 437.122 59.466 434.13 59.466C430.662 59.466 427.5 60.724 424.644 63.24C421.788 65.688 419.986 69.088 419.238 73.44C419.034 74.664 418.932 75.786 418.932 76.806C418.932 80.138 419.884 82.79 421.788 84.762C423.76 86.666 426.208 87.618 429.132 87.618C432.6 87.618 435.762 86.36 438.618 83.844C441.474 81.328 443.31 77.894 444.126 73.542ZM492.139 45.084L499.075 80.682L518.455 45.084H537.325L486.835 129.03H468.067L486.223 100.062L472.759 45.084H492.139ZM552.404 87.618H577.19L574.538 102H530.372L532.922 88.128L561.584 59.466H538.124L540.674 45.084H584.024L581.576 58.956L552.404 87.618ZM618.51 26.418C624.834 26.418 629.832 27.914 633.504 30.906C637.244 33.898 639.114 38.148 639.114 43.656C639.114 45.288 638.978 46.818 638.706 48.246C637.55 54.638 634.558 59.636 629.73 63.24C624.902 66.776 619.054 68.578 612.186 68.646L610.35 76.296H595.05L597.804 57.324H603.924C609.228 57.324 613.376 56.678 616.368 55.386C619.428 54.026 621.23 51.612 621.774 48.144C621.842 47.804 621.876 47.294 621.876 46.614C621.876 44.778 621.332 43.35 620.244 42.33C619.156 41.242 617.626 40.698 615.654 40.698C613.206 40.698 611.166 41.412 609.534 42.84C607.97 44.2 606.984 46.07 606.576 48.45H590.154C590.834 44.302 592.398 40.562 594.846 37.23C597.294 33.898 600.524 31.28 604.536 29.376C608.616 27.404 613.274 26.418 618.51 26.418ZM598.212 102.816C595.492 102.816 593.316 102.102 591.684 100.674C590.12 99.178 589.338 97.308 589.338 95.064C589.338 91.936 590.494 89.284 592.806 87.108C595.186 84.932 598.11 83.844 601.578 83.844C604.23 83.844 606.338 84.592 607.902 86.088C609.466 87.516 610.248 89.386 610.248 91.698C610.248 94.758 609.058 97.376 606.678 99.552C604.366 101.728 601.544 102.816 598.212 102.816Z" fill="#333333"/>
<path d="M171.051 35.3103V36.9157C171.051 38.8252 168.706 40.3739 165.812 40.3739H123.188C120.295 40.3739 117.949 38.8252 117.949 36.9157V35.3103C117.949 34.5836 118.842 33.9939 119.943 33.9939H120.047H131.666L135.651 36.6251L139.637 33.9939H168.953H169.058C170.159 33.9939 171.051 34.5836 171.051 35.3103Z" fill="#F7B239"/>
<path d="M171.051 27.1645C171.051 27.8921 170.159 28.481 169.058 28.481H168.953H120.047H119.943C119.393 28.481 118.894 28.334 118.534 28.0959C118.173 27.8578 117.949 27.5287 117.949 27.1645C117.949 24.2527 120.832 21.7853 124.818 20.9399L130.231 24.5133C131.195 25.149 132.756 25.149 133.72 24.5133C134.683 23.8768 134.683 22.8461 133.72 22.2096L131.323 20.6267H138.585L144.473 24.5133C145.437 25.149 146.998 25.149 147.962 24.5133C148.925 23.8768 148.925 22.8461 147.962 22.2096L145.564 20.6267H152.827L158.714 24.5133C159.677 25.149 161.24 25.149 162.204 24.5133C163.167 23.8768 163.167 22.8461 162.204 22.2096L159.806 20.6267H161.147C163.882 20.6267 166.358 21.3584 168.151 22.5412C169.942 23.7248 171.051 25.3586 171.051 27.1645Z" fill="#F7B239"/>
<path d="M131.624 40.3739H123.188C120.295 40.3739 117.949 38.8252 117.949 36.9157V35.3103C117.949 34.5836 118.842 33.9939 119.943 33.9939H128.378C127.278 33.9939 126.384 34.5836 126.384 35.3103V36.9157C126.384 38.8252 128.73 40.3739 131.624 40.3739Z" fill="#E09B2D"/>
<path d="M126.969 28.0961C127.33 28.3342 127.828 28.4812 128.378 28.4812H119.943C119.393 28.4812 118.894 28.3342 118.534 28.0961C118.173 27.8581 117.949 27.529 117.949 27.1648C117.949 24.253 120.832 21.7855 124.818 20.9402L128.339 23.2648C127.111 24.354 126.384 25.703 126.384 27.1648C126.384 27.529 126.608 27.8581 126.969 28.0961Z" fill="#E09B2D"/>
<path d="M137.335 24.692C136.373 25.1422 135.03 25.0821 134.168 24.5132L128.282 20.6274C130.971 20.6475 133.402 21.375 135.169 22.5411C136.093 23.1509 136.834 23.8809 137.335 24.692Z" fill="#F7B239"/>
<path d="M128.282 20.6278C128.243 20.6267 128.205 20.6267 128.166 20.6267H128.281L128.282 20.6278Z" fill="#F7B239"/>
<path d="M168.953 31.2373V33.9938H139.637L143.811 31.2373H168.953Z" fill="#9AD14B"/>
<path d="M168.953 28.481V31.2374H143.811H127.49H120.047V28.481H168.953Z" fill="#F95428"/>
<path d="M126.271 28.481V31.2374H123.071H120.994H120.047V28.481H126.271Z" fill="#E54728"/>
<path d="M162.204 22.2096C163.167 22.8461 163.167 23.8768 162.204 24.5133C161.24 25.149 159.677 25.149 158.714 24.5133L152.827 20.6267H159.806L162.204 22.2096Z" fill="#B27214"/>
<path d="M147.962 22.2096C148.925 22.8461 148.925 23.8768 147.962 24.5133C146.998 25.149 145.437 25.149 144.472 24.5133L138.585 20.6267H145.564L147.962 22.2096Z" fill="#B27214"/>
<path d="M143.811 31.2373L139.637 33.9938L135.651 36.6249L131.666 33.9938L127.49 31.2373H143.811Z" fill="#F4DE3B"/>
<path d="M133.72 22.2096C134.683 22.8461 134.683 23.8768 133.72 24.5133C132.756 25.149 131.195 25.149 130.231 24.5133L124.818 20.9399C125.775 20.7361 126.794 20.6267 127.853 20.6267H131.323L133.72 22.2096Z" fill="#B27214"/>
<path d="M131.666 33.9938H120.047V31.2373H127.49L131.666 33.9938Z" fill="#9AD14B"/>
<path d="M126.271 31.0984V33.8549H123.071H120.994H120.047V31.0984H126.271Z" fill="#90BC42"/>
<path d="M167.962 26.748C167.529 26.748 167.139 26.5517 167.038 26.2617C166.786 25.5381 166.227 24.8747 165.422 24.343C165.341 24.2895 165.257 24.237 165.173 24.1873C164.782 23.9568 164.749 23.5607 165.098 23.3027C165.447 23.0448 166.047 23.0226 166.438 23.2531C166.548 23.3182 166.658 23.3868 166.764 23.4569C167.822 24.1555 168.556 25.0282 168.887 25.9811C169.005 26.3183 168.686 26.6545 168.175 26.7319C168.104 26.7428 168.032 26.748 167.962 26.748ZM156.336 26.2865C156.093 26.2865 155.85 26.2253 155.665 26.103L153.367 24.5857C152.996 24.341 152.996 23.9443 153.367 23.6997C153.737 23.4551 154.338 23.455 154.709 23.6997L157.007 25.217C157.378 25.4617 157.378 25.8584 157.007 26.103C156.822 26.2253 156.579 26.2865 156.336 26.2865ZM141.666 26.0038C141.423 26.0038 141.18 25.9427 140.995 25.8203L138.654 24.2748C138.283 24.0301 138.283 23.6334 138.654 23.3888C139.025 23.1442 139.625 23.1442 139.996 23.3888L142.337 24.9344C142.708 25.179 142.708 25.5757 142.337 25.8203C142.152 25.9426 141.909 26.0038 141.666 26.0038Z" fill="white"/>
<path d="M137.38 23.1743C137.904 23.1743 138.329 22.8938 138.329 22.5479C138.329 22.2019 137.904 21.9214 137.38 21.9214C136.856 21.9214 136.431 22.2019 136.431 22.5479C136.431 22.8938 136.856 23.1743 137.38 23.1743Z" fill="white"/>
<path d="M152.226 23.5645C152.75 23.5645 153.174 23.284 153.174 22.938C153.174 22.592 152.75 22.3115 152.226 22.3115C151.701 22.3115 151.277 22.592 151.277 22.938C151.277 23.284 151.701 23.5645 152.226 23.5645Z" fill="white"/>
<path d="M168.456 38.1098C167.932 38.1098 167.507 37.8293 167.507 37.4833V35.8127C167.507 35.4668 167.932 35.1863 168.456 35.1863C168.98 35.1863 169.405 35.4668 169.405 35.8127V37.4833C169.405 37.8293 168.98 38.1098 168.456 38.1098Z" fill="white"/>
<path d="M169.902 33.449L169.902 29.0256C171.114 28.7852 172 28.0422 172 27.1648C172 23.2141 167.131 20 161.147 20H127.854C121.869 20 117.001 23.2141 117.001 27.1648C117.001 28.0421 117.886 28.7852 119.098 29.0256L119.098 33.4492C117.886 33.6895 117 34.4326 117 35.31V36.9154C117 39.1676 119.776 41 123.188 41H165.812C169.224 41 171.999 39.1676 171.999 36.9154V35.31C171.999 34.4324 171.114 33.6892 169.902 33.449ZM168.004 30.6106H120.996V29.1075H168.004L168.004 30.6106ZM120.996 31.8639H127.098L129.375 33.3671H120.996V31.8639ZM129.782 31.8639H141.52L135.651 35.7388L129.782 31.8639ZM144.204 31.8639H168.004V33.3671H141.927L144.204 31.8639ZM161.533 24.0698C160.941 24.4605 159.977 24.4607 159.385 24.07L155.118 21.2529H159.413L161.532 22.652C162.124 23.0431 162.124 23.6793 161.533 24.0698ZM147.291 22.652C147.882 23.0431 147.882 23.6793 147.292 24.0698C146.699 24.4604 145.735 24.4603 145.144 24.07L140.876 21.2529H145.171L147.291 22.652ZM130.93 21.2529L133.049 22.6521C133.64 23.0431 133.64 23.6794 133.05 24.0699C132.457 24.4604 131.494 24.4604 130.902 24.0701L126.71 21.3028C127.085 21.2711 127.466 21.2529 127.853 21.2529H130.93ZM124.575 21.6651L129.56 24.9563C130.226 25.3953 131.101 25.6148 131.975 25.6148C132.85 25.6148 133.725 25.3952 134.392 24.9557C135.722 24.0765 135.722 22.6459 134.391 21.7663L133.614 21.2529H138.192L143.802 24.9563C144.468 25.3953 145.342 25.6148 146.217 25.6148C147.092 25.6148 147.967 25.3952 148.634 24.9557C149.964 24.0765 149.964 22.6459 148.633 21.7663L147.856 21.2529H152.434L158.043 24.956C158.709 25.3955 159.584 25.6152 160.458 25.6152C161.333 25.6152 162.209 25.3954 162.875 24.9558C164.206 24.0766 164.206 22.646 162.875 21.7664L162.156 21.2914C166.62 21.6234 170.102 24.1301 170.102 27.1648C170.102 27.5452 169.634 27.8547 169.057 27.8547H168.954H120.047H119.943C119.367 27.8547 118.898 27.5452 118.898 27.1648C118.898 24.6689 121.255 22.5308 124.575 21.6651ZM170.102 36.9154C170.102 38.4767 168.177 39.7471 165.812 39.7471H123.188C120.823 39.7471 118.898 38.4767 118.898 36.9154V35.31C118.898 34.9295 119.367 34.62 119.943 34.62H120.047H131.272L134.98 37.0678C135.158 37.1853 135.4 37.2513 135.651 37.2513C135.903 37.2513 136.144 37.1852 136.322 37.0678L140.029 34.62H168.953H169.058C169.633 34.62 170.102 34.9295 170.102 35.31V36.9154Z" fill="#333333"/>
</svg>
