<svg width="376" height="90" viewBox="0 0 376 90" fill="none" xmlns="http://www.w3.org/2000/svg">
  <path d="M66.06 23.88 47.64 66H35.22l-1.86-27.66L21.54 66H9.12L5.88 23.88h10.98l.66 30.66 12.9-30.66h11.34l1.8 30.48 11.46-30.48zm9.406 5.16q-2.4 0-3.84-1.26-1.38-1.32-1.38-3.3 0-2.7 2.1-4.62t5.1-1.92q2.4 0 3.78 1.32 1.38 1.26 1.38 3.3 0 2.64-2.1 4.56t-5.04 1.92m4.44 3.48L74.026 66h-10.26l5.88-33.48zm2.515 16.74q.9-5.22 3.72-9.12t6.96-6q4.2-2.1 9.12-2.1 6.3 0 9.96 3.3t3.9 9.3h-10.92q-.66-3.84-4.68-3.84-2.82 0-4.86 2.22-2.04 2.16-2.76 6.24-.24 1.26-.24 2.64 0 2.82 1.32 4.32t3.6 1.5q3.96 0 5.94-3.84h10.98q-2.34 5.88-7.2 9.24t-11.1 3.36q-6.48 0-10.32-3.54-3.78-3.6-3.78-9.78 0-1.86.36-3.9m61.888-17.1q4.92 0 7.74 2.82 2.88 2.82 2.88 7.86 0 1.68-.36 3.6L151.089 66h-10.2l3.24-18.18q.18-1.02.18-1.8 0-2.52-1.44-3.9-1.38-1.38-3.9-1.38-3 0-5.04 1.86t-2.64 5.22v-.12l-3.24 18.3h-10.26l7.86-44.4h10.26l-2.7 15.36q1.98-2.22 4.86-3.48 2.88-1.32 6.24-1.32m93.196-8.28L219.085 66h-12.42l-1.86-27.66L192.985 66h-12.42l-3.24-42.12h10.98l.66 30.66 12.9-30.66h11.34l1.8 30.48 11.46-30.48zm-1.334 25.32q.9-5.16 3.54-9.06t6.36-6 7.86-2.1q3.54 0 5.94 1.44t3.48 3.78l.84-4.74h10.26L268.511 66h-10.26l.9-4.74q-1.92 2.34-4.86 3.78t-6.48 1.44-6.3-1.62q-2.7-1.62-4.2-4.56-1.5-3-1.5-7.02 0-1.92.36-4.08m25.08.06q.18-1.08.18-1.98 0-2.94-1.74-4.62-1.68-1.68-4.32-1.68-3.06 0-5.58 2.22-2.52 2.16-3.18 6-.18 1.08-.18 1.98 0 2.94 1.68 4.68 1.74 1.68 4.32 1.68 3.06 0 5.58-2.22t3.24-6.06m28.242-16.74 4.08 20.94 11.4-20.94h11.1l-29.7 49.38h-11.04l10.68-17.04-7.92-32.34zm35.451 25.02h14.58l-1.56 8.46h-25.98l1.5-8.16 16.86-16.86h-13.8l1.5-8.46h25.5l-1.44 8.16zm38.885-36q5.58 0 8.82 2.64 3.3 2.64 3.3 7.5 0 1.44-.24 2.7-1.02 5.64-5.28 8.82-4.26 3.12-10.32 3.18l-1.08 4.5h-9l1.62-11.16h3.6q4.68 0 7.32-1.14 2.7-1.2 3.18-4.26.06-.3.06-.9 0-1.62-.96-2.52-.96-.96-2.7-.96-2.16 0-3.6 1.26-1.38 1.2-1.74 3.3h-9.66q.6-3.66 2.76-6.6t5.7-4.62q3.6-1.74 8.22-1.74m-11.94 44.94q-2.4 0-3.84-1.26-1.38-1.32-1.38-3.3 0-2.76 2.04-4.68 2.1-1.92 5.16-1.92 2.34 0 3.72 1.32 1.38 1.26 1.38 3.3 0 2.7-2.1 4.62-2.04 1.92-4.98 1.92" fill="#333"/>
</svg>
