<svg width="320" height="569" viewBox="0 0 320 569" fill="none" xmlns="http://www.w3.org/2000/svg">
  <path d="M160 285v271" stroke="#D9534F" stroke-width="26" stroke-miterlimit="10" stroke-linecap="round"/>
  <path d="M311.111 182.365 8.889 177.778l.15 23.333c.152 5.271 3.156 10.56 9.6 14.507L80.036 253.2l61.405 37.573c13.564 8.312 36.844 7.538 49.111 0 12.293-7.511 6.151-11.262 18.427-18.791 12.275-7.502 18.408-3.751 30.702-11.253 12.293-7.538 61.413-37.573 61.413-37.573 6.765-4.143 10.142-9.574 10.16-15.014z" fill="#F4900C"/>
  <path d="M301.094 166.409s-270.17-15.023-282.454-7.511-13.564 21.751 0 30.062l61.396 37.582 61.404 37.582c13.565 8.311 36.845 7.538 49.111 0 12.294-7.511 6.151-11.262 18.427-18.791 12.276-7.502 18.409-3.751 30.702-11.253 12.294-7.538 61.405-37.582 61.405-37.582 13.564-8.312 13.573-21.787.009-30.089" fill="#FFAC33"/>
  <path d="m90.862 219.04 62.854 37.582s12.569 7.502 25.137 0c10.64-6.373 18.854-18.791 18.854-18.791z" fill="#FFD983"/>
  <path d="M299.902 165.022c-17.253-23.013-237.28-39.218-271.795-6.818-6.97 6.551-20.134 19.734-6.116 39.458 6.116 10.329 18.809 17.058 20.498 13.867 3.938-7.485 11.795-14.027 23.582-13.396-.667 1.582 5.698 28.507 4.978 29.111-8.222 6.987 8.862 31.271 28.88 18.338 4.986 9.849 35.164 34.16 55.991.907 4.142 7.502 47.644 18.915 59.724-15.698-.097.595-.071 1.102-.231 1.742-.791 3.111 6.418 5.805 13.76 3.227 12.347-4.32 30.178-15.049 33.334-26.827 8.808-1.538 15.413.907 20.497 7.627 2.516 3.324 11.147 4.124 14.836-.222 6.507-7.636 17.182-31.138 2.062-51.316" fill="#77B255"/>
  <path d="M275.555 222.587c0 4.702-7.964 8.524-17.777 8.524H62.222c-9.813 0-17.778-3.822-17.778-8.524v-58.232h231.111z" fill="#FFCC4D"/>
  <path d="M296.098 177.662c0 24.604-40.765 44.56-91.04 44.56-50.294 0-91.049-19.956-91.049-44.56 0-24.613 40.755-44.56 91.049-44.56 50.275 0 91.04 19.956 91.04 44.56" fill="#BE1931"/>
  <path d="M311.111 129.031 8.889 124.444v23.334h.15c.152 5.271 3.156 10.56 9.6 14.506l61.396 37.583 61.405 37.573c13.564 8.311 36.844 7.538 49.111 0 12.293-7.511 6.151-11.262 18.427-18.791 12.275-7.502 18.408-3.751 30.702-11.254 12.293-7.537 61.413-37.573 61.413-37.573 6.765-4.142 10.142-9.573 10.16-15.013v-.045z" fill="#F4900C"/>
  <path d="m301.094 113.075-122.8-75.146c-13.565-8.302-35.556-8.302-49.129 0L67.76 75.51c-12.275 7.511-6.142 11.271-18.418 18.782s-18.417 3.751-30.702 11.271c-12.284 7.511-13.564 21.751 0 30.063l122.8 75.155c13.565 8.311 36.845 7.538 49.111 0 12.294-7.511 6.151-11.262 18.427-18.791 12.276-7.502 18.409-3.751 30.702-11.253 12.294-7.538 61.405-37.583 61.405-37.583 13.564-8.302 13.573-21.777.009-30.08" fill="#FFAC33"/>
  <path d="M292 120.604 166.285 45.449s-13.396-7.031-25.147 0L79.254 82.444C68.614 88.8 70.07 95.45 59.43 101.804 48.8 108.169 38.64 106.72 28 113.075c-12.57 7.529 0 15.049 0 15.049l125.706 75.156s12.569 7.502 25.138 0c10.64-6.374 8.231-12.418 18.853-18.791 10.64-6.374 21.751-5.503 32.391-11.858 10.64-6.347 61.893-37.005 61.893-37.005s11.76-8.008.018-15.022" fill="#FFD983"/>
</svg>