<svg width="42" height="52" viewBox="0 0 42 52" fill="none" xmlns="http://www.w3.org/2000/svg">
<g filter="url(#filter0_d_3_6)">
<path d="M35.5 15.0236C35.5 17.2401 34.6436 20.0097 33.3022 22.9555C31.9662 25.8894 30.173 28.9476 28.3511 31.7257C26.53 34.5025 24.6867 36.99 23.256 38.7809C22.5401 39.6769 21.931 40.3943 21.4819 40.8847C21.2847 41.1001 21.1231 41.2663 21 41.383C20.8768 41.2663 20.7153 41.1001 20.5181 40.8847C20.069 40.3944 19.4599 39.677 18.744 38.781C17.3133 36.9902 15.47 34.5029 13.6489 31.7261C11.827 28.948 10.0338 25.8899 8.69785 22.956C7.35644 20.0101 6.5 17.2404 6.5 15.0236C6.5 7.92167 12.636 2.5 21 2.5C29.364 2.5 35.5 7.92167 35.5 15.0236Z" stroke="#FFC72C"/>
<path d="M21 42C21.7179 42 36 24.3251 36 15.0236C36 7.58154 29.5714 2 21 2C12.4286 2 6 7.58154 6 15.0236C6 24.3262 20.2821 42 21 42Z" fill="#DA291C" stroke="#FFC72C" stroke-width="3"/>
<path d="M29.0714 16.359C29.0714 20.594 25.4785 24.0641 21 24.0641C16.5215 24.0641 12.9286 20.594 12.9286 16.359C12.9286 12.1239 16.5215 8.65385 21 8.65385C25.4785 8.65385 29.0714 12.1239 29.0714 16.359Z" fill="#FFC72C" stroke="#FFC72C"/>
</g>
<defs>
<filter id="filter0_d_3_6" x="0.5" y="0.5" width="41" height="51" filterUnits="userSpaceOnUse" color-interpolation-filters="sRGB">
<feFlood flood-opacity="0" result="BackgroundImageFix"/>
<feColorMatrix in="SourceAlpha" type="matrix" values="0 0 0 0 0 0 0 0 0 0 0 0 0 0 0 0 0 0 127 0" result="hardAlpha"/>
<feOffset dy="4"/>
<feGaussianBlur stdDeviation="2"/>
<feComposite in2="hardAlpha" operator="out"/>
<feColorMatrix type="matrix" values="0 0 0 0 0 0 0 0 0 0 0 0 0 0 0 0 0 0 0.25 0"/>
<feBlend mode="normal" in2="BackgroundImageFix" result="effect1_dropShadow_3_6"/>
<feBlend mode="normal" in="SourceGraphic" in2="effect1_dropShadow_3_6" result="shape"/>
</filter>
</defs>
</svg>
