<svg width="838" height="150" viewBox="0 0 838 150" fill="none" xmlns="http://www.w3.org/2000/svg">
  <g filter="url(#a)">
    <path d="M135.635 14.23 94.19 109H66.245L62.06 46.765 35.465 109H7.52L.23 14.23h24.705l1.485 68.985L55.445 14.23H80.96l4.05 68.58 25.785-68.58zm21.162 11.61q-5.4 0-8.64-2.835-3.105-2.97-3.105-7.425 0-6.075 4.725-10.395t11.475-4.32q5.4 0 8.505 2.97 3.105 2.835 3.105 7.425 0 5.94-4.725 10.26t-11.34 4.32m9.99 7.83L153.557 109h-23.085l13.23-75.33zm5.66 37.665q2.025-11.745 8.37-20.52t15.66-13.5q9.45-4.725 20.52-4.725 14.175 0 22.41 7.425t8.775 20.925h-24.57q-1.485-8.64-10.53-8.64-6.345 0-10.935 4.995-4.59 4.86-6.21 14.04-.54 2.835-.54 5.94 0 6.345 2.97 9.72t8.1 3.375q8.91 0 13.365-8.64h24.705q-5.265 13.23-16.2 20.79t-24.975 7.56q-14.58 0-23.22-7.965-8.505-8.1-8.505-22.005 0-4.185.81-8.775M311.695 32.86q11.07 0 17.415 6.345 6.48 6.345 6.48 17.685 0 3.78-.81 8.1L326.95 109H304l7.29-40.905q.405-2.295.405-4.05 0-5.67-3.24-8.775-3.105-3.105-8.775-3.105-6.75 0-11.34 4.185t-5.94 11.745v-.27L275.11 109h-23.085L269.71 9.1h23.085l-6.075 34.56q4.455-4.995 10.935-7.83 6.48-2.97 14.04-2.97m209.692-18.63L479.942 109h-27.945l-4.185-62.235L421.217 109h-27.945l-7.29-94.77h24.705l1.485 68.985 29.025-68.985h25.515l4.05 68.58 25.785-68.58zm-3.003 56.97q2.025-11.61 7.965-20.385t14.31-13.5 17.685-4.725q7.965 0 13.365 3.24t7.83 8.505l1.89-10.665h23.085L591.149 109h-23.085l2.025-10.665q-4.32 5.265-10.935 8.505t-14.58 3.24-14.175-3.645q-6.075-3.645-9.45-10.26-3.375-6.75-3.375-15.795 0-4.32.81-9.18m56.43.135q.405-2.43.405-4.455 0-6.615-3.915-10.395-3.78-3.78-9.72-3.78-6.885 0-12.555 4.995-5.67 4.86-7.155 13.5-.405 2.43-.405 4.455 0 6.615 3.78 10.53 3.915 3.78 9.72 3.78 6.885 0 12.555-4.995t7.29-13.635M638.36 33.67l9.18 47.115 25.65-47.115h24.975L631.34 144.775H606.5l24.03-38.34-17.82-72.765zm79.763 56.295h32.805L747.418 109h-58.455l3.375-18.36 37.935-37.935h-31.05l3.375-19.035h57.375l-3.24 18.36zm87.493-81q12.555 0 19.845 5.94 7.425 5.94 7.425 16.875 0 3.24-.54 6.075-2.295 12.69-11.88 19.845-9.585 7.02-23.22 7.155l-2.43 10.125h-20.25l3.645-25.11h8.1q10.53 0 16.47-2.565 6.075-2.7 7.155-9.585.135-.675.135-2.025 0-3.645-2.16-5.67-2.16-2.16-6.075-2.16-4.86 0-8.1 2.835-3.105 2.7-3.915 7.425h-21.735q1.35-8.235 6.21-14.85t12.825-10.395q8.1-3.915 18.495-3.915M778.751 110.08q-5.4 0-8.64-2.835-3.105-2.97-3.105-7.425 0-6.21 4.59-10.53 4.725-4.32 11.61-4.32 5.265 0 8.37 2.97 3.105 2.835 3.105 7.425 0 6.075-4.725 10.395-4.59 4.32-11.205 4.32" fill="#FFC72C"/>
  </g>
  <defs>
    <filter id="a" x=".23" y=".865" width="837.656" height="148.91" filterUnits="userSpaceOnUse" color-interpolation-filters="sRGB">
      <feFlood flood-opacity="0" result="BackgroundImageFix"/>
      <feColorMatrix in="SourceAlpha" values="0 0 0 0 0 0 0 0 0 0 0 0 0 0 0 0 0 0 127 0" result="hardAlpha"/>
      <feOffset dx="5" dy="5"/>
      <feComposite in2="hardAlpha" operator="out"/>
      <feColorMatrix values="0 0 0 0 0 0 0 0 0 0 0 0 0 0 0 0 0 0 1 0"/>
      <feBlend in2="BackgroundImageFix" result="effect1_dropShadow_65_38"/>
      <feBlend in="SourceGraphic" in2="effect1_dropShadow_65_38" result="shape"/>
    </filter>
  </defs>
</svg>
